<svg width="22" height="21" viewBox="0 0 22 21" fill="none" xmlns="http://www.w3.org/2000/svg">
<path d="M12.5313 14.2187C12.4451 14.2192 12.3596 14.2023 12.28 14.1693C12.2004 14.1362 12.1281 14.0876 12.0675 14.0262L9.00503 10.9637C8.88214 10.8407 8.81311 10.6739 8.81311 10.5C8.81311 10.3261 8.88214 10.1593 9.00503 10.0362L12.0675 7C12.1909 6.92003 12.3375 6.88379 12.4839 6.89708C12.6303 6.91037 12.768 6.97242 12.8749 7.07329C12.9818 7.17416 13.0518 7.308 13.0735 7.45337C13.0953 7.59874 13.0677 7.74722 12.995 7.875L10.37 10.5L12.995 13.125C13.1179 13.248 13.187 13.4148 13.187 13.5887C13.187 13.7627 13.1179 13.9295 12.995 14.0525C12.8684 14.1669 12.7017 14.2266 12.5313 14.2187Z" fill="#E8E8E8" style="fill:#E8E8E8;fill:color(display-p3 0.9098 0.9098 0.9098);fill-opacity:1;"/>
</svg>
