<svg width="28" height="29" viewBox="0 0 28 29" fill="none" xmlns="http://www.w3.org/2000/svg">
<rect y="0.5" width="28" height="28" rx="14" fill="#FC5839" style="fill:#FC5839;fill:color(display-p3 0.9882 0.3451 0.2235);fill-opacity:1;"/>
<path d="M14 22C18.1421 22 21.5 18.6421 21.5 14.5C21.5 10.3579 18.1421 7 14 7C9.85786 7 6.5 10.3579 6.5 14.5C6.5 18.6421 9.85786 22 14 22Z" stroke="white" style="stroke:white;stroke-opacity:1;" stroke-linecap="round" stroke-linejoin="round"/>
<path d="M9.5 14.5016C9.5 13.2266 10.025 12.1016 10.85 11.3516" stroke="white" style="stroke:white;stroke-opacity:1;" stroke-linecap="round" stroke-linejoin="round"/>
<path d="M14 16C14.8284 16 15.5 15.3284 15.5 14.5C15.5 13.6716 14.8284 13 14 13C13.1716 13 12.5 13.6716 12.5 14.5C12.5 15.3284 13.1716 16 14 16Z" stroke="white" style="stroke:white;stroke-opacity:1;" stroke-linecap="round" stroke-linejoin="round"/>
<path d="M18.4984 14.5C18.4984 15.775 17.9734 16.9 17.1484 17.65" stroke="white" style="stroke:white;stroke-opacity:1;" stroke-linecap="round" stroke-linejoin="round"/>
</svg>
