<svg width="28" height="29" viewBox="0 0 28 29" fill="none" xmlns="http://www.w3.org/2000/svg">
<rect y="0.5" width="28" height="28" rx="14" fill="#1366E6" style="fill:#1366E6;fill:color(display-p3 0.0745 0.4000 0.9020);fill-opacity:1;"/>
<path d="M14.0016 11.5L7.22157 18.295C7.00457 18.486 6.82902 18.7194 6.70577 18.9809C6.58252 19.2424 6.51418 19.5264 6.50498 19.8153C6.49578 20.1043 6.5459 20.392 6.65226 20.6608C6.75863 20.9296 6.91896 21.1738 7.12338 21.3782C7.32779 21.5826 7.57193 21.7429 7.84074 21.8493C8.10954 21.9557 8.3973 22.0058 8.68623 21.9966C8.97517 21.9874 9.25915 21.9191 9.52064 21.7958C9.78213 21.6726 10.0156 21.497 10.2066 21.28L17.0016 14.5" stroke="white" style="stroke:white;stroke-opacity:1;" stroke-linecap="round" stroke-linejoin="round"/>
<path d="M17.75 14.5C19.8211 14.5 21.5 12.8211 21.5 10.75C21.5 8.67893 19.8211 7 17.75 7C15.6789 7 14 8.67893 14 10.75C14 12.8211 15.6789 14.5 17.75 14.5Z" stroke="white" style="stroke:white;stroke-opacity:1;" stroke-linecap="round" stroke-linejoin="round"/>
</svg>
