<svg width="11" height="7" viewBox="0 0 11 7" fill="none" xmlns="http://www.w3.org/2000/svg">
<path d="M3.5465 6.94611C3.49039 6.94422 3.43526 6.93089 3.38448 6.90694C3.3337 6.88299 3.28836 6.84892 3.25121 6.80682L0.465498 4.02111C0.412385 3.98667 0.367789 3.94062 0.335078 3.88642C0.302368 3.83223 0.282397 3.77131 0.276675 3.70827C0.270952 3.64523 0.279627 3.58171 0.302044 3.52252C0.324461 3.46332 0.360034 3.40999 0.406078 3.36655C0.452123 3.32311 0.507434 3.2907 0.567836 3.27177C0.628239 3.25284 0.692153 3.24787 0.754754 3.25725C0.817356 3.26664 0.877007 3.29012 0.929205 3.32593C0.981403 3.36174 1.02478 3.40894 1.05607 3.46397L3.5465 5.93768L9.37978 0.121109C9.45832 0.070191 9.55167 0.0471136 9.64488 0.0555752C9.7381 0.0640368 9.82577 0.103548 9.89385 0.167775C9.96193 0.232002 10.0065 0.317226 10.0203 0.409787C10.0342 0.502349 10.0166 0.596888 9.97036 0.678252L3.84178 6.80682C3.80464 6.84892 3.75929 6.88299 3.70852 6.90694C3.65774 6.93089 3.60261 6.94422 3.5465 6.94611Z" fill="#1C2127" style="fill:#1C2127;fill:color(display-p3 0.1098 0.1294 0.1529);fill-opacity:1;"/>
</svg>
