<svg width="13" height="13" viewBox="0 0 13 13" fill="none" xmlns="http://www.w3.org/2000/svg">
<path d="M6.87151 8.55098C6.46563 8.55098 6.06886 8.43069 5.73138 8.20532C5.39391 7.97995 5.13087 7.65963 4.97555 7.28486C4.82023 6.91009 4.77959 6.4977 4.85877 6.09985C4.93795 5.70199 5.1334 5.33654 5.4204 5.0497C5.70741 4.76286 6.07307 4.56752 6.47115 4.48838C6.86923 4.40925 7.28186 4.44986 7.65684 4.6051C8.03183 4.76033 8.35233 5.02322 8.57783 5.3605C8.80332 5.69779 8.92368 6.09433 8.92368 6.49998C8.92368 7.04393 8.70747 7.56561 8.32262 7.95025C7.93776 8.33489 7.41578 8.55098 6.87151 8.55098ZM6.87151 5.49898C6.67342 5.49898 6.47977 5.55768 6.31507 5.66768C6.15036 5.77767 6.02198 5.934 5.94618 6.11691C5.87037 6.29982 5.85054 6.50109 5.88918 6.69526C5.92783 6.88944 6.02322 7.0678 6.16329 7.20779C6.30336 7.34778 6.48183 7.44312 6.67611 7.48174C6.8704 7.52037 7.07178 7.50054 7.2548 7.42478C7.43781 7.34902 7.59423 7.22071 7.70429 7.0561C7.81434 6.89149 7.87308 6.69795 7.87308 6.49998C7.87308 6.23449 7.76756 5.97989 7.57973 5.79216C7.3919 5.60444 7.13714 5.49898 6.87151 5.49898Z" fill="white" fill-opacity="0.6" style="fill:white;fill-opacity:0.6;"/>
<path d="M6.91352 12.625C6.70874 12.6241 6.50615 12.5828 6.31739 12.5034C6.12864 12.424 5.95743 12.3081 5.8136 12.1624C5.66978 12.0167 5.55616 11.8441 5.47929 11.6544C5.40241 11.4647 5.36379 11.2617 5.36564 11.057C5.36287 10.9939 5.34235 10.9328 5.30642 10.8808C5.27049 10.8288 5.22062 10.788 5.16252 10.763C5.09825 10.7335 5.02666 10.7238 4.95684 10.735C4.88701 10.7462 4.82209 10.7779 4.7703 10.826C4.4795 11.1144 4.08735 11.2777 3.67767 11.281C3.26541 11.2836 2.86838 11.1254 2.57104 10.84C2.42661 10.6957 2.31204 10.5244 2.23387 10.3358C2.1557 10.1472 2.11547 9.94511 2.11547 9.741C2.11547 9.53689 2.1557 9.33478 2.23387 9.14621C2.31204 8.95764 2.42661 8.78631 2.57104 8.642C2.62044 8.597 2.65591 8.53882 2.67329 8.47432C2.69066 8.40982 2.68921 8.3417 2.6691 8.278C2.63497 8.21892 2.586 8.16976 2.52704 8.13538C2.46808 8.10101 2.40116 8.08261 2.3329 8.082C1.92081 8.08038 1.52544 7.91891 1.23014 7.63162C0.934849 7.34433 0.762705 6.95367 0.75 6.542C0.750918 6.33793 0.792045 6.13603 0.871035 5.94784C0.950024 5.75965 1.06533 5.58885 1.21036 5.4452C1.3554 5.30155 1.52733 5.18785 1.71633 5.11061C1.90533 5.03336 2.1077 4.99408 2.31189 4.995C2.37506 4.99224 2.43618 4.97172 2.48821 4.93581C2.54024 4.89991 2.58109 4.85006 2.60606 4.792C2.63556 4.72776 2.64532 4.65622 2.6341 4.58643C2.62287 4.51665 2.59118 4.45176 2.54302 4.4C2.25443 4.10937 2.09104 3.71745 2.08776 3.308C2.08418 3.10361 2.12136 2.90054 2.19711 2.71066C2.27287 2.52077 2.3857 2.34785 2.52902 2.202C2.67341 2.05765 2.84484 1.94314 3.03351 1.86502C3.22219 1.7869 3.42442 1.74669 3.62864 1.74669C3.83287 1.74669 4.0351 1.7869 4.22378 1.86502C4.41245 1.94314 4.58388 2.05765 4.72827 2.202C4.7787 2.24995 4.84062 2.28415 4.90807 2.30131C4.97553 2.31847 5.04626 2.31802 5.11349 2.3C5.17478 2.26645 5.22673 2.21816 5.26465 2.15949C5.30256 2.10082 5.32523 2.03363 5.33062 1.964C5.33042 1.55092 5.49118 1.15401 5.77883 0.857383C6.06647 0.560757 6.45838 0.387738 6.8715 0.375C7.07569 0.37683 7.27752 0.418841 7.46547 0.498632C7.65342 0.578423 7.8238 0.694433 7.96689 0.840037C8.10997 0.985641 8.22296 1.15799 8.2994 1.34723C8.37584 1.53648 8.41423 1.73892 8.41238 1.943C8.41503 2.00705 8.43457 2.06927 8.46901 2.12335C8.50344 2.17743 8.55156 2.22147 8.60849 2.251C8.6703 2.27368 8.73726 2.27849 8.80168 2.26487C8.8661 2.25125 8.92537 2.21976 8.9727 2.174C9.26349 1.88557 9.65564 1.72227 10.0653 1.719C10.2702 1.71258 10.4742 1.74843 10.6646 1.82431C10.855 1.90018 11.0277 2.01446 11.172 2.16C11.3164 2.30431 11.431 2.47564 11.5091 2.66421C11.5873 2.85278 11.6275 3.05489 11.6275 3.259C11.6275 3.46311 11.5873 3.66522 11.5091 3.85379C11.431 4.04236 11.3164 4.21369 11.172 4.358C11.1276 4.41043 11.0972 4.47324 11.0838 4.54057C11.0703 4.6079 11.0741 4.67755 11.0949 4.743C11.1285 4.80425 11.1768 4.85618 11.2355 4.89407C11.2942 4.93196 11.3614 4.95462 11.4311 4.96C11.8408 4.96522 12.2326 5.12829 12.5249 5.4152C12.8172 5.70212 12.9874 6.09073 13 6.5C12.9982 6.70408 12.9561 6.90579 12.8763 7.09363C12.7965 7.28147 12.6804 7.45176 12.5347 7.59476C12.389 7.73777 12.2166 7.85069 12.0272 7.92708C11.8379 8.00348 11.6353 8.04185 11.4311 8.04C11.367 8.04265 11.3048 8.06218 11.2507 8.0966C11.1965 8.13101 11.1525 8.1791 11.1229 8.236C11.1002 8.29778 11.0954 8.3647 11.109 8.42908C11.1227 8.49346 11.1542 8.5527 11.2 8.6C11.4886 8.89063 11.652 9.28255 11.6552 9.692C11.6588 9.89639 11.6216 10.0995 11.5459 10.2893C11.4701 10.4792 11.3573 10.6521 11.214 10.798C11.0696 10.9423 10.8982 11.0569 10.7095 11.135C10.5208 11.2131 10.3186 11.2533 10.1144 11.2533C9.91012 11.2533 9.7079 11.2131 9.51922 11.135C9.33054 11.0569 9.15911 10.9423 9.01472 10.798C8.9674 10.7522 8.90812 10.7207 8.8437 10.7071C8.77928 10.6935 8.71233 10.6983 8.65051 10.721C8.5914 10.7551 8.54221 10.804 8.50782 10.863C8.47342 10.9219 8.45501 10.9888 8.4544 11.057C8.44918 11.4664 8.28602 11.858 7.99894 12.1502C7.71186 12.4423 7.32303 12.6124 6.91352 12.625ZM5.01544 9.678C5.2012 9.67583 5.38522 9.71405 5.55475 9.79C5.80491 9.89422 6.01946 10.0687 6.17237 10.2924C6.32528 10.516 6.41 10.7792 6.41624 11.05C6.4143 11.185 6.4652 11.3155 6.55809 11.4135C6.65098 11.5116 6.77852 11.5695 6.91352 11.575C7.04851 11.5643 7.17436 11.5027 7.26544 11.4025C7.35653 11.3024 7.406 11.1713 7.4038 11.036C7.40547 10.7642 7.48393 10.4985 7.63016 10.2694C7.77638 10.0402 7.98441 9.85709 8.23027 9.741C8.48604 9.63466 8.76761 9.60651 9.03938 9.66008C9.31116 9.71366 9.56094 9.84656 9.75715 10.042C9.85003 10.1348 9.976 10.187 10.1073 10.187C10.2387 10.187 10.3647 10.1348 10.4575 10.042C10.5504 9.94917 10.6026 9.82327 10.6026 9.692C10.6026 9.56072 10.5504 9.43482 10.4575 9.342C10.2632 9.14513 10.1315 8.89512 10.0792 8.62354C10.0268 8.35195 10.0561 8.07096 10.1634 7.816C10.2739 7.57037 10.4529 7.3618 10.679 7.21529C10.9051 7.06879 11.1686 6.99056 11.4381 6.99C11.5714 6.99194 11.7001 6.9418 11.7969 6.85028C11.8937 6.75875 11.9509 6.63307 11.9564 6.5C11.9474 6.36446 11.8862 6.23769 11.7856 6.14631C11.685 6.05494 11.553 6.00608 11.4171 6.01C11.1429 6.00255 10.8763 5.91863 10.6473 5.76772C10.4184 5.61682 10.2362 5.40493 10.1214 5.156C10.0165 4.8978 9.98919 4.61468 10.0427 4.34121C10.0962 4.06775 10.2281 3.81575 10.4225 3.616C10.4685 3.57004 10.505 3.51547 10.5299 3.45542C10.5548 3.39537 10.5676 3.331 10.5676 3.266C10.5676 3.201 10.5548 3.13663 10.5299 3.07658C10.505 3.01653 10.4685 2.96196 10.4225 2.916C10.3765 2.87004 10.3219 2.83358 10.2619 2.8087C10.2018 2.78383 10.1374 2.77103 10.0723 2.77103C10.0073 2.77103 9.94289 2.78383 9.8828 2.8087C9.82271 2.83358 9.76812 2.87004 9.72213 2.916C9.52521 3.09879 9.27983 3.22111 9.01528 3.26836C8.75072 3.31562 8.47814 3.28581 8.23006 3.18251C7.98199 3.0792 7.76888 2.90675 7.61616 2.68573C7.46345 2.46471 7.37757 2.20445 7.36878 1.936C7.37072 1.80283 7.32056 1.67417 7.22898 1.57741C7.1374 1.48066 7.01165 1.42346 6.8785 1.418C6.74289 1.427 6.61604 1.48818 6.52461 1.58869C6.43319 1.6892 6.3843 1.82122 6.38822 1.957C6.38077 2.23101 6.2968 2.49748 6.14581 2.72632C5.99481 2.95515 5.78281 3.13723 5.53373 3.252C5.27539 3.35676 4.99211 3.38408 4.71848 3.33063C4.44486 3.27718 4.19272 3.14527 3.99285 2.951C3.94686 2.90504 3.89227 2.86858 3.83218 2.8437C3.77209 2.81883 3.70769 2.80603 3.64265 2.80603C3.57761 2.80603 3.51321 2.81883 3.45313 2.8437C3.39304 2.86858 3.33844 2.90504 3.29245 2.951C3.24646 2.99696 3.20998 3.05153 3.18509 3.11158C3.16021 3.17163 3.1474 3.236 3.1474 3.301C3.1474 3.366 3.16021 3.43037 3.18509 3.49042C3.20998 3.55047 3.24646 3.60504 3.29245 3.651C3.48565 3.84865 3.61601 4.09901 3.66711 4.37057C3.71821 4.64212 3.68777 4.92271 3.57962 5.177C3.47534 5.42702 3.30073 5.64145 3.07696 5.79427C2.85318 5.9471 2.58985 6.03176 2.3189 6.038C2.18379 6.03606 2.05328 6.08694 1.95515 6.17977C1.85703 6.27261 1.79906 6.40007 1.7936 6.535C1.80427 6.66991 1.86598 6.79568 1.96618 6.88672C2.06637 6.97775 2.19751 7.0272 2.3329 7.025C2.60482 7.02666 2.87072 7.10508 3.09997 7.25123C3.32923 7.39737 3.51249 7.60528 3.62864 7.851C3.73504 8.10662 3.76322 8.38803 3.70961 8.65965C3.656 8.93127 3.52302 9.18091 3.32747 9.377C3.28148 9.42296 3.245 9.47753 3.22011 9.53758C3.19523 9.59763 3.18242 9.662 3.18242 9.727C3.18242 9.792 3.19523 9.85637 3.22011 9.91642C3.245 9.97647 3.28148 10.031 3.32747 10.077C3.37346 10.123 3.42806 10.1594 3.48815 10.1843C3.54823 10.2092 3.61263 10.222 3.67767 10.222C3.74271 10.222 3.80711 10.2092 3.8672 10.1843C3.92729 10.1594 3.98188 10.123 4.02787 10.077C4.29409 9.82298 4.64738 9.68024 5.01544 9.678Z" fill="white" style="fill:white;fill-opacity:1;"/>
</svg>
