<svg width="3" height="11" viewBox="0 0 3 11" fill="none" xmlns="http://www.w3.org/2000/svg">
<path d="M1.74995 6.55001C2.32985 6.55001 2.79995 6.07991 2.79995 5.50001C2.79995 4.92011 2.32985 4.45001 1.74995 4.45001C1.17005 4.45001 0.699951 4.92011 0.699951 5.50001C0.699951 6.07991 1.17005 6.55001 1.74995 6.55001Z" fill="#8C8C8C" style="fill:#8C8C8C;fill:color(display-p3 0.5490 0.5490 0.5490);fill-opacity:1;"/>
<path d="M1.74995 2.35C2.32985 2.35 2.79995 1.8799 2.79995 1.3C2.79995 0.720101 2.32985 0.25 1.74995 0.25C1.17005 0.25 0.699951 0.720101 0.699951 1.3C0.699951 1.8799 1.17005 2.35 1.74995 2.35Z" fill="#8C8C8C" style="fill:#8C8C8C;fill:color(display-p3 0.5490 0.5490 0.5490);fill-opacity:1;"/>
<path d="M1.74995 10.75C2.32985 10.75 2.79995 10.2799 2.79995 9.70002C2.79995 9.12013 2.32985 8.65002 1.74995 8.65002C1.17005 8.65002 0.699951 9.12013 0.699951 9.70002C0.699951 10.2799 1.17005 10.75 1.74995 10.75Z" fill="#8C8C8C" style="fill:#8C8C8C;fill:color(display-p3 0.5490 0.5490 0.5490);fill-opacity:1;"/>
</svg>
