<svg width="18" height="14" viewBox="0 0 18 14" fill="none" xmlns="http://www.w3.org/2000/svg">
<path d="M10.93 6H0.929993C0.73108 6 0.540315 5.92098 0.399662 5.78033C0.25901 5.63968 0.179993 5.44891 0.179993 5.25C0.179993 5.05109 0.25901 4.86032 0.399662 4.71967C0.540315 4.57902 0.73108 4.5 0.929993 4.5H10.93C11.1289 4.5 11.3197 4.57902 11.4603 4.71967C11.601 4.86032 11.68 5.05109 11.68 5.25C11.68 5.44891 11.601 5.63968 11.4603 5.78033C11.3197 5.92098 11.1289 6 10.93 6Z" fill="white" style="fill:white;fill-opacity:1;"/>
<path d="M17.07 2H1.07001C0.871095 2 0.68033 1.92098 0.539677 1.78033C0.399025 1.63968 0.320007 1.44891 0.320007 1.25C0.320007 1.05109 0.399025 0.860322 0.539677 0.71967C0.68033 0.579018 0.871095 0.5 1.07001 0.5H17.07C17.2689 0.5 17.4597 0.579018 17.6003 0.71967C17.741 0.860322 17.82 1.05109 17.82 1.25C17.82 1.44891 17.741 1.63968 17.6003 1.78033C17.4597 1.92098 17.2689 2 17.07 2Z" fill="white" style="fill:white;fill-opacity:1;"/>
<path d="M17.07 10H1.07001C0.871095 10 0.68033 9.92098 0.539677 9.78033C0.399025 9.63968 0.320007 9.44891 0.320007 9.25C0.320007 9.05109 0.399025 8.86032 0.539677 8.71967C0.68033 8.57902 0.871095 8.5 1.07001 8.5H17.07C17.2689 8.5 17.4597 8.57902 17.6003 8.71967C17.741 8.86032 17.82 9.05109 17.82 9.25C17.82 9.44891 17.741 9.63968 17.6003 9.78033C17.4597 9.92098 17.2689 10 17.07 10Z" fill="white" style="fill:white;fill-opacity:1;"/>
<path d="M10.93 14H0.929993C0.73108 14 0.540315 13.921 0.399662 13.7803C0.25901 13.6397 0.179993 13.4489 0.179993 13.25C0.179993 13.0511 0.25901 12.8603 0.399662 12.7197C0.540315 12.579 0.73108 12.5 0.929993 12.5H10.93C11.1289 12.5 11.3197 12.579 11.4603 12.7197C11.601 12.8603 11.68 13.0511 11.68 13.25C11.68 13.4489 11.601 13.6397 11.4603 13.7803C11.3197 13.921 11.1289 14 10.93 14Z" fill="white" style="fill:white;fill-opacity:1;"/>
</svg>
