<svg width="17" height="15" viewBox="0 0 17 15" fill="none" xmlns="http://www.w3.org/2000/svg">
<path d="M15.5 7.28125C15.3579 7.28189 15.2195 7.23577 15.1063 7.15L8.5 2.1975L1.89375 7.15C1.75451 7.25443 1.57949 7.29927 1.4072 7.27465C1.2349 7.25004 1.07943 7.15799 0.975003 7.01875C0.870574 6.87951 0.825734 6.70449 0.850348 6.53219C0.874962 6.35989 0.967014 6.20443 1.10625 6.1L8.10625 0.85C8.21985 0.764804 8.35801 0.71875 8.5 0.71875C8.642 0.71875 8.78016 0.764804 8.89375 0.85L15.8938 6.1C16.0208 6.2032 16.1047 6.35017 16.129 6.51206C16.1533 6.67394 16.1162 6.83906 16.025 6.975C15.9692 7.06511 15.8922 7.14016 15.8007 7.19355C15.7091 7.24695 15.6059 7.27706 15.5 7.28125Z" fill="#8C8C8C" style="fill:#8C8C8C;fill:color(display-p3 0.5490 0.5490 0.5490);fill-opacity:1;"/>
<path d="M13.75 14.2812H3.25C3.07666 14.279 2.91105 14.2091 2.78847 14.0865C2.66588 13.9639 2.59602 13.7983 2.59375 13.625V5.3125C2.59375 5.13845 2.66289 4.97153 2.78596 4.84846C2.90903 4.72539 3.07595 4.65625 3.25 4.65625C3.42405 4.65625 3.59097 4.72539 3.71404 4.84846C3.83711 4.97153 3.90625 5.13845 3.90625 5.3125V12.9688H13.0938V5.3125C13.0938 5.13845 13.1629 4.97153 13.286 4.84846C13.409 4.72539 13.576 4.65625 13.75 4.65625C13.924 4.65625 14.091 4.72539 14.214 4.84846C14.3371 4.97153 14.4062 5.13845 14.4062 5.3125V13.625C14.404 13.7983 14.3341 13.9639 14.2115 14.0865C14.0889 14.2091 13.9233 14.279 13.75 14.2812Z" fill="#8C8C8C" style="fill:#8C8C8C;fill:color(display-p3 0.5490 0.5490 0.5490);fill-opacity:1;"/>
<path d="M10.25 14.2812C10.0767 14.279 9.91105 14.2091 9.78847 14.0865C9.66588 13.9639 9.59602 13.7983 9.59375 13.625V8.15625H7.40625V13.625C7.40625 13.799 7.33711 13.966 7.21404 14.089C7.09097 14.2121 6.92405 14.2812 6.75 14.2812C6.57595 14.2812 6.40903 14.2121 6.28596 14.089C6.16289 13.966 6.09375 13.799 6.09375 13.625V7.5C6.09602 7.32666 6.16588 7.16105 6.28847 7.03847C6.41105 6.91588 6.57666 6.84602 6.75 6.84375H10.25C10.4233 6.84602 10.5889 6.91588 10.7115 7.03847C10.8341 7.16105 10.904 7.32666 10.9062 7.5V13.625C10.904 13.7983 10.8341 13.9639 10.7115 14.0865C10.5889 14.2091 10.4233 14.279 10.25 14.2812Z" fill="#8C8C8C" style="fill:#8C8C8C;fill:color(display-p3 0.5490 0.5490 0.5490);fill-opacity:1;"/>
</svg>
