<svg width="12" height="13" viewBox="0 0 12 13" fill="none" xmlns="http://www.w3.org/2000/svg">
<path d="M9.37501 5.275H9.20001V3.7C9.20001 2.81816 8.8497 1.97243 8.22614 1.34887C7.60258 0.725312 6.75686 0.375 5.87501 0.375C4.99317 0.375 4.14744 0.725312 3.52388 1.34887C2.90032 1.97243 2.55001 2.81816 2.55001 3.7V5.275H2.37501C1.86447 5.275 1.37484 5.47781 1.01383 5.83882C0.652824 6.19983 0.450012 6.68946 0.450012 7.2V10.7C0.450012 11.2105 0.652824 11.7002 1.01383 12.0612C1.37484 12.4222 1.86447 12.625 2.37501 12.625H9.37501C9.88555 12.625 10.3752 12.4222 10.7362 12.0612C11.0972 11.7002 11.3 11.2105 11.3 10.7V7.2C11.3 6.68946 11.0972 6.19983 10.7362 5.83882C10.3752 5.47781 9.88555 5.275 9.37501 5.275ZM3.60001 3.7C3.60001 3.09663 3.8397 2.51798 4.26634 2.09133C4.69299 1.66469 5.27164 1.425 5.87501 1.425C6.47838 1.425 7.05703 1.66469 7.48368 2.09133C7.91033 2.51798 8.15001 3.09663 8.15001 3.7V5.275H3.60001V3.7ZM10.25 10.7C10.25 10.9321 10.1578 11.1546 9.99373 11.3187C9.82964 11.4828 9.60708 11.575 9.37501 11.575H2.37501C2.14295 11.575 1.92039 11.4828 1.75629 11.3187C1.5922 11.1546 1.50001 10.9321 1.50001 10.7V7.2C1.50001 6.96794 1.5922 6.74538 1.75629 6.58128C1.92039 6.41719 2.14295 6.325 2.37501 6.325H9.37501C9.60708 6.325 9.82964 6.41719 9.99373 6.58128C10.1578 6.74538 10.25 6.96794 10.25 7.2V10.7Z" fill="white" fill-opacity="0.6" style="fill:white;fill-opacity:0.6;"/>
</svg>
