<svg width="25" height="25" viewBox="0 0 25 25" fill="none" xmlns="http://www.w3.org/2000/svg">
<path d="M12.5 3.5C10.72 3.5 8.97991 4.02784 7.49987 5.01677C6.01983 6.00571 4.86628 7.41131 4.18509 9.05585C3.5039 10.7004 3.32567 12.51 3.67294 14.2558C4.0202 16.0016 4.87737 17.6053 6.13604 18.864C7.39472 20.1226 8.99836 20.9798 10.7442 21.3271C12.49 21.6743 14.2996 21.4961 15.9442 20.8149C17.5887 20.1337 18.9943 18.9802 19.9832 17.5001C20.9722 16.0201 21.5 14.28 21.5 12.5C21.5 10.1131 20.5518 7.82387 18.864 6.13604C17.1761 4.44821 14.887 3.5 12.5 3.5ZM12.5 20C11.0166 20 9.5666 19.5601 8.33323 18.736C7.09986 17.9119 6.13856 16.7406 5.57091 15.3701C5.00325 13.9997 4.85473 12.4917 5.14411 11.0368C5.4335 9.58196 6.14781 8.24559 7.1967 7.1967C8.2456 6.14781 9.58197 5.4335 11.0368 5.14411C12.4917 4.85472 13.9997 5.00325 15.3701 5.5709C16.7406 6.13856 17.9119 7.09985 18.736 8.33322C19.5601 9.56659 20 11.0166 20 12.5C20 14.4891 19.2098 16.3968 17.8033 17.8033C16.3968 19.2098 14.4891 20 12.5 20Z" fill="white" style="fill:white;fill-opacity:1;"/>
<path d="M10.2 8.19998C9.89833 8.50215 9.65916 8.86081 9.49615 9.25545C9.33314 9.65009 9.2495 10.073 9.25 10.5C9.25 10.6989 9.32902 10.8897 9.46967 11.0303C9.61032 11.171 9.80109 11.25 10 11.25C10.1989 11.25 10.3897 11.171 10.5303 11.0303C10.671 10.8897 10.75 10.6989 10.75 10.5C10.7488 10.2698 10.7932 10.0417 10.8808 9.82888C10.9683 9.61603 11.0972 9.42266 11.26 9.25998C11.5946 8.94203 12.0385 8.76474 12.5 8.76474C12.9615 8.76474 13.4054 8.94203 13.74 9.25998C13.9893 9.50418 14.1598 9.81732 14.2298 10.1592C14.2998 10.5011 14.2659 10.856 14.1326 11.1785C13.9993 11.501 13.7727 11.7763 13.4817 11.969C13.1908 12.1617 12.8489 12.263 12.5 12.26C12.3019 12.2626 12.1126 12.3424 11.9725 12.4825C11.8324 12.6226 11.7526 12.8119 11.75 13.01V14.01C11.75 14.2089 11.829 14.3997 11.9697 14.5403C12.1103 14.681 12.3011 14.76 12.5 14.76C12.6989 14.76 12.8897 14.681 13.0303 14.5403C13.171 14.3997 13.25 14.2089 13.25 14.01V13.67C13.8375 13.5355 14.375 13.2373 14.8 12.81C15.4082 12.199 15.7497 11.3721 15.7497 10.51C15.7497 9.6479 15.4082 8.82092 14.8 8.20998C14.1806 7.61917 13.358 7.28873 12.502 7.28687C11.646 7.28501 10.822 7.61187 10.2 8.19998Z" fill="white" style="fill:white;fill-opacity:1;"/>
<path d="M12.5 18C13.1904 18 13.75 17.4404 13.75 16.75C13.75 16.0596 13.1904 15.5 12.5 15.5C11.8096 15.5 11.25 16.0596 11.25 16.75C11.25 17.4404 11.8096 18 12.5 18Z" fill="white" style="fill:white;fill-opacity:1;"/>
</svg>
