<svg width="16" height="16" viewBox="0 0 16 16" fill="none" xmlns="http://www.w3.org/2000/svg">
<path d="M6.92374 13.5125C5.62061 13.5125 4.34675 13.1261 3.26323 12.4021C2.17972 11.6781 1.33522 10.6491 0.836533 9.44515C0.337846 8.24121 0.207367 6.91644 0.461595 5.63834C0.715824 4.36025 1.34334 3.18625 2.26479 2.26479C3.18625 1.34334 4.36025 0.715824 5.63834 0.461595C6.91644 0.207367 8.24121 0.337846 9.44515 0.836533C10.6491 1.33522 11.6781 2.17972 12.4021 3.26323C13.1261 4.34675 13.5125 5.62061 13.5125 6.92374C13.5125 7.78899 13.3421 8.64577 13.011 9.44515C12.6798 10.2445 12.1945 10.9709 11.5827 11.5827C10.9709 12.1945 10.2445 12.6798 9.44515 13.011C8.64577 13.3421 7.78899 13.5125 6.92374 13.5125ZM6.92374 1.65624C5.88539 1.65624 4.87036 1.96415 4.007 2.54103C3.14364 3.11791 2.47074 3.93784 2.07338 4.89716C1.67602 5.85647 1.57205 6.91207 1.77462 7.93047C1.97719 8.94887 2.47721 9.88433 3.21143 10.6186C3.94566 11.3528 4.88112 11.8528 5.89952 12.0554C6.91792 12.2579 7.97352 12.154 8.93283 11.7566C9.89214 11.3593 10.7121 10.6863 11.289 9.82299C11.8658 8.95963 12.1737 7.9446 12.1737 6.90624C12.1737 5.51386 11.6206 4.1785 10.6361 3.19393C9.65149 2.20937 8.31613 1.65624 6.92374 1.65624Z" fill="white" fill-opacity="0.6" style="fill:white;fill-opacity:0.6;"/>
<path d="M15 15.6562C14.9138 15.6567 14.8283 15.6398 14.7487 15.6068C14.6691 15.5737 14.5968 15.5251 14.5362 15.4637L10.9225 11.85C10.8066 11.7256 10.7435 11.5611 10.7465 11.391C10.7495 11.221 10.8183 11.0588 10.9386 10.9386C11.0588 10.8183 11.221 10.7495 11.391 10.7465C11.5611 10.7435 11.7256 10.8066 11.85 10.9225L15.4637 14.5362C15.5866 14.6593 15.6557 14.8261 15.6557 15C15.6557 15.1739 15.5866 15.3407 15.4637 15.4637C15.4032 15.5251 15.3309 15.5737 15.2513 15.6068C15.1717 15.6398 15.0862 15.6567 15 15.6562Z" fill="white" fill-opacity="0.6" style="fill:white;fill-opacity:0.6;"/>
</svg>
