<svg width="21" height="22" viewBox="0 0 21 22" fill="none" xmlns="http://www.w3.org/2000/svg">
<path d="M9.42378 16.5125C8.12064 16.5125 6.84678 16.1261 5.76326 15.4021C4.67975 14.6781 3.83525 13.6491 3.33656 12.4452C2.83788 11.2412 2.7074 9.91644 2.96163 8.63835C3.21585 7.36026 3.84337 6.18625 4.76483 5.2648C5.68628 4.34335 6.86028 3.71583 8.13837 3.4616C9.41647 3.20737 10.7412 3.33785 11.9452 3.83654C13.1491 4.33523 14.1781 5.17972 14.9021 6.26324C15.6261 7.34675 16.0125 8.62062 16.0125 9.92375C16.0125 10.789 15.8421 11.6458 15.511 12.4452C15.1799 13.2445 14.6945 13.9709 14.0827 14.5827C13.4709 15.1945 12.7446 15.6798 11.9452 16.011C11.1458 16.3421 10.289 16.5125 9.42378 16.5125ZM9.42378 4.65625C8.38542 4.65625 7.37039 4.96416 6.50703 5.54103C5.64367 6.11791 4.97077 6.93785 4.57341 7.89716C4.17605 8.85647 4.07208 9.91207 4.27465 10.9305C4.47722 11.9489 4.97724 12.8843 5.71146 13.6186C6.44569 14.3528 7.38115 14.8528 8.39955 15.0554C9.41795 15.2579 10.4736 15.154 11.4329 14.7566C12.3922 14.3593 13.2121 13.6864 13.789 12.823C14.3659 11.9596 14.6738 10.9446 14.6738 9.90625C14.6738 8.51386 14.1207 7.17851 13.1361 6.19394C12.1515 5.20937 10.8162 4.65625 9.42378 4.65625Z" fill="#E8E8E8" style="fill:#E8E8E8;fill:color(display-p3 0.9098 0.9098 0.9098);fill-opacity:1;"/>
<path d="M17.5 18.6562C17.4138 18.6567 17.3284 18.6398 17.2487 18.6068C17.1691 18.5737 17.0969 18.5251 17.0363 18.4637L13.4225 14.85C13.3066 14.7256 13.2435 14.5611 13.2465 14.391C13.2495 14.221 13.3184 14.0588 13.4386 13.9386C13.5588 13.8183 13.7211 13.7495 13.8911 13.7465C14.0611 13.7435 14.2256 13.8066 14.35 13.9225L17.9638 17.5362C18.0867 17.6593 18.1557 17.8261 18.1557 18C18.1557 18.1739 18.0867 18.3407 17.9638 18.4637C17.9032 18.5251 17.831 18.5737 17.7513 18.6068C17.6717 18.6398 17.5863 18.6567 17.5 18.6562Z" fill="white" style="fill:white;fill-opacity:1;"/>
<path d="M9.40625 12.75C9.23291 12.7477 9.0673 12.6779 8.94472 12.5553C8.82213 12.4327 8.75227 12.2671 8.75 12.0938V7.71875C8.75 7.5447 8.81914 7.37778 8.94221 7.25471C9.06528 7.13164 9.2322 7.0625 9.40625 7.0625C9.5803 7.0625 9.74722 7.13164 9.87029 7.25471C9.99336 7.37778 10.0625 7.5447 10.0625 7.71875V12.0938C10.0602 12.2671 9.99037 12.4327 9.86778 12.5553C9.7452 12.6779 9.57959 12.7477 9.40625 12.75Z" fill="white" style="fill:white;fill-opacity:1;"/>
<path d="M11.5938 10.5625H7.21875C7.0447 10.5625 6.87778 10.4934 6.75471 10.3703C6.63164 10.2472 6.5625 10.0803 6.5625 9.90625C6.5625 9.7322 6.63164 9.56528 6.75471 9.44221C6.87778 9.31914 7.0447 9.25 7.21875 9.25H11.5938C11.7678 9.25 11.9347 9.31914 12.0578 9.44221C12.1809 9.56528 12.25 9.7322 12.25 9.90625C12.25 10.0803 12.1809 10.2472 12.0578 10.3703C11.9347 10.4934 11.7678 10.5625 11.5938 10.5625Z" fill="white" style="fill:white;fill-opacity:1;"/>
</svg>
