<svg width="6" height="11" viewBox="0 0 6 11" fill="none" xmlns="http://www.w3.org/2000/svg">
<path d="M0.750002 10.5313C0.663779 10.5317 0.578344 10.5148 0.498708 10.4818C0.419073 10.4487 0.346841 10.4001 0.286253 10.3388C0.163358 10.2157 0.0943298 10.0489 0.0943298 9.875C0.0943298 9.7011 0.163358 9.5343 0.286253 9.41125L4.1975 5.5L0.286253 1.58875C0.170333 1.46435 0.107224 1.29981 0.110224 1.1298C0.113224 0.959782 0.182097 0.79757 0.302334 0.677334C0.42257 0.557097 0.584782 0.488225 0.754795 0.485225C0.924809 0.482225 1.08935 0.545333 1.21375 0.661253L5.58875 5.03625C5.71165 5.1593 5.78067 5.3261 5.78067 5.5C5.78067 5.67391 5.71165 5.84071 5.58875 5.96375L1.21375 10.3388C1.15316 10.4001 1.08093 10.4487 1.0013 10.4818C0.921661 10.5148 0.836225 10.5317 0.750002 10.5313Z" fill="white" fill-opacity="0.6" style="fill:white;fill-opacity:0.6;"/>
</svg>
