<svg width="24" height="28" viewBox="0 0 24 28" fill="none" xmlns="http://www.w3.org/2000/svg">
<path fill-rule="evenodd" clip-rule="evenodd" d="M9.92308 26.7799C10.5522 27.1509 11.2697 27.3454 12 27.343C12.729 27.3442 13.4454 27.1532 14.0769 26.7891L21.96 22.1737C22.5783 21.8083 23.0912 21.2887 23.4487 20.6659C23.8063 20.043 23.9962 19.3381 24 18.6199V9.38913C23.9978 8.66938 23.8086 7.96255 23.451 7.33793C23.0934 6.71331 22.5796 6.19233 21.96 5.82605L14.0769 1.21067C13.4449 0.847891 12.7288 0.657 12 0.657C11.2712 0.657 10.5551 0.847891 9.92308 1.21067L2.04 5.82605C1.42041 6.19233 0.906624 6.71331 0.549004 7.33793C0.191383 7.96255 0.00220043 8.66938 0 9.38913V18.6199C0.00220043 19.3397 0.191383 20.0465 0.549004 20.6711C0.906624 21.2957 1.42041 21.8167 2.04 22.183L9.92308 26.7799ZM10.8763 9.56037C10.8787 9.2739 10.9901 8.9991 11.1878 8.7918C11.3856 8.5845 11.6548 8.46026 11.9408 8.44432C12.2269 8.42838 12.5082 8.52194 12.7278 8.70598C12.9473 8.89003 13.0885 9.15075 13.1228 9.43518L15.3818 9.43515C15.0733 5.1123 8.94222 5.11882 8.62486 9.43518C8.62012 9.83171 8.6213 11.2137 8.62228 12.3599V12.3609C8.6229 13.0857 8.62344 13.7161 8.62235 13.9431H10.8763V9.56037ZM13.1304 17.5743V13.9429V13.1916H15.3844V17.5742C15.2107 21.9784 8.96207 22.0957 8.625 17.6995L10.884 17.6995C10.9173 17.9729 11.0496 18.2247 11.2558 18.4073C11.462 18.5899 11.728 18.6907 12.0034 18.6907C12.2789 18.6908 12.5448 18.5899 12.7511 18.4073C12.9573 18.2247 13.0896 17.9729 13.1229 17.6995C13.128 17.6579 13.1305 17.6161 13.1304 17.5743ZM16.0077 10.1871H11.625V12.4411H16.0077C16.2942 12.4435 16.569 12.5549 16.7763 12.7526C16.9836 12.9503 17.1079 13.2196 17.1238 13.5056C17.1398 13.7916 17.0462 14.073 16.8622 14.2926C16.6781 14.5121 16.4174 14.6533 16.1329 14.6875L16.1329 16.9465C16.9865 16.9181 17.7971 16.5652 18.3994 15.9598C20.5217 13.8711 18.9876 10.168 16.0077 10.1871ZM7.9964 14.6943H12.3791V16.9482H7.9964C7.11056 16.9483 6.26009 16.6007 5.62791 15.9801C4.99574 15.3596 4.63237 14.5157 4.61597 13.63C4.59956 12.7443 4.93142 11.8876 5.54018 11.244C6.14893 10.6005 6.98594 10.2216 7.87118 10.1889V12.4478C7.58495 12.4798 7.32183 12.6201 7.13587 12.84C6.9499 13.06 6.8552 13.3427 6.87123 13.6303C6.88726 13.9178 7.0128 14.1883 7.22205 14.3862C7.43131 14.5841 7.7084 14.6943 7.9964 14.6943Z" fill="#5448C8" style="fill:#5448C8;fill:color(display-p3 0.3294 0.2824 0.7843);fill-opacity:1;"/>
</svg>
