<svg width="13" height="13" viewBox="0 0 13 13" fill="none" xmlns="http://www.w3.org/2000/svg">
<path d="M12.475 4.19034H1.275C1.20606 4.19034 1.13779 4.17677 1.07409 4.1504C1.0104 4.12403 0.95252 4.08538 0.903769 4.03665C0.855018 3.98792 0.816347 3.93008 0.789963 3.86641C0.763579 3.80275 0.75 3.73451 0.75 3.6656C0.75 3.5967 0.763579 3.52846 0.789963 3.4648C0.816347 3.40113 0.855018 3.34329 0.903769 3.29456C0.95252 3.24583 1.0104 3.20718 1.07409 3.18081C1.13779 3.15444 1.20606 3.14087 1.275 3.14087H12.475C12.6142 3.14087 12.7478 3.19615 12.8462 3.29456C12.9447 3.39297 13 3.52644 13 3.6656C13 3.80477 12.9447 3.93824 12.8462 4.03665C12.7478 4.13506 12.6142 4.19034 12.475 4.19034Z" fill="white" fill-opacity="0.6" style="fill:white;fill-opacity:0.6;"/>
<path d="M9.98298 12.6211H3.76698C3.54514 12.6363 3.3225 12.6072 3.11196 12.5358C2.90143 12.4643 2.70718 12.3517 2.54049 12.2047C2.3738 12.0576 2.23798 11.8789 2.1409 11.6789C2.04383 11.479 1.98743 11.2618 1.97498 11.0399V3.70058C1.97498 3.56141 2.03029 3.42794 2.12874 3.32953C2.2272 3.23113 2.36074 3.17584 2.49998 3.17584C2.63921 3.17584 2.77275 3.23113 2.87121 3.32953C2.96966 3.42794 3.02498 3.56141 3.02498 3.70058V11.0399C3.02498 11.3267 3.35398 11.5716 3.72498 11.5716H9.94097C10.333 11.5716 10.641 11.3267 10.641 11.0399V3.70058C10.641 3.55028 10.7007 3.40613 10.807 3.29985C10.9134 3.19357 11.0576 3.13386 11.208 3.13386C11.3584 3.13386 11.5026 3.19357 11.6089 3.29985C11.7152 3.40613 11.775 3.55028 11.775 3.70058V11.0399C11.7625 11.2618 11.7061 11.479 11.609 11.6789C11.512 11.8789 11.3762 12.0576 11.2095 12.2047C11.0428 12.3517 10.8485 12.4643 10.638 12.5358C10.4275 12.6072 10.2048 12.6363 9.98298 12.6211ZM10.067 3.52567C9.99777 3.52661 9.92908 3.51368 9.86496 3.48764C9.80084 3.4616 9.74259 3.42299 9.69365 3.37407C9.64471 3.32516 9.60607 3.26694 9.58002 3.20285C9.55397 3.13876 9.54103 3.0701 9.54198 3.00093V1.95846C9.54198 1.6716 9.20598 1.42672 8.84198 1.42672H4.92898C4.54398 1.42672 4.22898 1.6716 4.22898 1.95846V3.00093C4.22898 3.1401 4.17366 3.27357 4.07521 3.37198C3.97675 3.47038 3.84321 3.52567 3.70398 3.52567C3.56474 3.52567 3.4312 3.47038 3.33274 3.37198C3.23429 3.27357 3.17898 3.1401 3.17898 3.00093V1.95846C3.20608 1.5186 3.4044 1.10682 3.73148 0.81129C4.05856 0.515759 4.4884 0.359962 4.92898 0.377253H8.82097C9.26509 0.354295 9.70032 0.507541 10.032 0.803654C10.3636 1.09977 10.5649 1.51479 10.592 1.95846V3.00093C10.5929 3.07043 10.58 3.13941 10.554 3.20389C10.5281 3.26836 10.4895 3.32704 10.4407 3.37651C10.3919 3.42598 10.3337 3.46525 10.2695 3.49206C10.2054 3.51887 10.1365 3.53267 10.067 3.53266V3.52567Z" fill="white" fill-opacity="0.6" style="fill:white;fill-opacity:0.6;"/>
<path d="M5.62874 9.99744C5.49013 9.99563 5.35772 9.93976 5.2597 9.84174C5.16168 9.74373 5.10582 9.61131 5.104 9.4727V6.3033C5.104 6.16413 5.15929 6.03066 5.25769 5.93226C5.3561 5.83385 5.48957 5.77856 5.62874 5.77856C5.76791 5.77856 5.90138 5.83385 5.99978 5.93226C6.09819 6.03066 6.15347 6.16413 6.15347 6.3033V9.46571C6.1544 9.5352 6.14151 9.60419 6.11556 9.66866C6.0896 9.73314 6.0511 9.79181 6.00228 9.84128C5.95346 9.89075 5.8953 9.93003 5.83118 9.95684C5.76705 9.98364 5.69824 9.99745 5.62874 9.99744Z" fill="white" fill-opacity="0.6" style="fill:white;fill-opacity:0.6;"/>
<path d="M8.12074 9.99744C7.98158 9.99744 7.84811 9.94216 7.7497 9.84375C7.65129 9.74534 7.59601 9.61187 7.59601 9.4727V6.3033C7.59601 6.16413 7.65129 6.03066 7.7497 5.93226C7.84811 5.83385 7.98158 5.77856 8.12074 5.77856C8.25991 5.77856 8.39338 5.83385 8.49179 5.93226C8.5902 6.03066 8.64548 6.16413 8.64548 6.3033V9.46571C8.64549 9.60553 8.59043 9.73973 8.49222 9.83925C8.39401 9.93877 8.26055 9.9956 8.12074 9.99744Z" fill="white" fill-opacity="0.6" style="fill:white;fill-opacity:0.6;"/>
</svg>
